<?xml version="1.0" encoding="utf-8"?>
<!-- Generator: Adobe Illustrator 27.9.0, SVG Export Plug-In . SVG Version: 6.00 Build 0)  -->
<svg version="1.1" xmlns="http://www.w3.org/2000/svg" xmlns:xlink="http://www.w3.org/1999/xlink" x="0px" y="0px"
	 viewBox="0 0 500 500" style="enable-background:new 0 0 500 500;" xml:space="preserve">
<style type="text/css">
	.st0{fill:#107152;}
	.st1{fill:none;stroke:#2A403F;stroke-linecap:round;stroke-linejoin:round;stroke-miterlimit:10;}
	.st2{fill:none;stroke:#2A403F;stroke-width:2;stroke-linecap:round;stroke-linejoin:round;stroke-miterlimit:10;}
	.st3{fill:#FEDA6C;}
	.st4{fill:#F2C033;}
	.st5{fill:#ED760E;}
</style>
<g id="BACKGROUND_1_">
</g>
<g id="OBJECTS_1_">
	<g>
		<g>
			<path class="st0" d="M261.9,438.1c15.6-37.7,55.1-64.1,95.8-64.2c-2.9,2.4-5.9,4.7-8.8,7.1c17.6-1.3,35.3,0.1,52.4,4.3
				c-13.2,27.9-39.2,49.3-69.1,56.9c3.8-1.3,8.3-0.4,11.4,2.2C316.6,452.8,286.3,450.1,261.9,438.1z"/>
			<g>
				<path class="st1" d="M261.1,437.4c36.2-21.6,77.2-35.1,119.2-39.2"/>
				<path class="st1" d="M332.9,384.4c-11.4,6.6-20.3,17.3-24.7,29.6"/>
				<path class="st1" d="M276.5,430.7c11.7,6.3,24.8,10,38.1,10.7"/>
				<path class="st1" d="M336.2,406.4c6.4,7.1,15.9,11.3,25.5,11.4"/>
			</g>
		</g>
		<g>
			<path class="st0" d="M305.4,350.5c4.5-36,30.7-66.9,63.6-75.1c-1.9,2.6-3.7,5.3-5.6,8c13.9-4.7,28.5-6.9,43.3-6.7
				c-4.6,26.9-21.1,50.8-43.6,63.4c2.8-1.9,6.7-2,9.7-0.3C352.8,352.5,327.7,356.1,305.4,350.5z"/>
			<g>
				<path class="st1" d="M304.6,350.1c24.6-26.1,54.8-46,87.9-58"/>
				<path class="st1" d="M351.3,289.6c-7.8,8-12.7,19.1-13.5,30.8"/>
				<path class="st1" d="M315.7,341.2c10.8,3.2,22.2,3.8,33.1,1.7"/>
				<path class="st1" d="M358.7,308.1c6.7,4.9,15.3,6.7,23.1,4.9"/>
			</g>
		</g>
		<g>
			<path class="st0" d="M257.4,272.2c-0.9-21.5-8.5-42.6-21.5-59.6c0.3,3.4,0.7,6.8,1,10.2c-7.9-12.3-23.5-17-37.9-19.3
				c-14.5-2.2-29.8-3.1-42.1-11c0,10.7,2.2,21.5,6.4,31.3c-2.2-1.2-4.5-2.4-6.7-3.6c5.3,21.6,22.5,39.8,43.7,46.1
				c-1.4,2.6-4,4.5-6.9,5C213.4,281.1,236.9,283.4,257.4,272.2z"/>
			<g>
				<path class="st1" d="M256.6,272.7c-8.6-16.1-25.1-26-41.3-34.3c-16.1-8.4-33.2-16.4-44.6-30.7"/>
				<path class="st1" d="M173,234.8c11.8,6.7,26.5,8.1,39.5,3.8"/>
				<path class="st1" d="M244.2,257.1c-10.8,8.1-23.9,13-37.3,14"/>
				<path class="st1" d="M230.6,246c1.7-8.6-0.3-17.9-5.3-25.1"/>
			</g>
		</g>
		<g>
			<path class="st2" d="M210.9,146.5c53.2,89.9,68.8,201.3,42.3,302.3c44.8-61.6,68.8-138.1,67.2-214.3"/>
			<path class="st2" d="M254.7,448.1c-11.9-31.9-30.2-61.5-53.5-86.3"/>
		</g>
		<g>
			<g>
				<path class="st3" d="M279.9,99.1c-0.7,6.8-9.1,15.7-16.8,22.4h0c-6.6,5.9-12.7,10.1-12.7,10.1s11,0.1,19.2,0.8
					s10.8,16.7-6.5,29.6c-17.3,12.9-36.6-3.3-36.6-3.3c2.4,26.1-27.4,36.1-39.1,29.1c-11.7-7,4.3-30.8,4.3-30.8
					c-23.9,21.1-42.6,11.3-52.3-2.6c-7.1-10.2-9.4-22.6-5.2-26.7c9.9-9.7,43.3-1.3,43.3-1.3c-36.9-14.3-38.4-49.6-19.6-50.8
					c18.5-1.2,38.9,31.8,39.6,32.8c-23.5-59,8-71.4,23.7-55c15.4,16,8.5,55.4,8.2,57.1c0.7-1.7,15.7-39.1,27.4-42.1
					C268.6,65.5,281.2,86.4,279.9,99.1z"/>
			</g>
			<path class="st4" d="M262.9,162c-17.3,12.9-36.6-3.3-36.6-3.3c2.4,26.1-27.4,36.1-39.1,29.1c-11.7-7,4.3-30.8,4.3-30.8
				c-23.9,21.1-42.6,11.3-52.3-2.6c0,0,19.8,13.9,38.3,5.4c18.4-8.5,25.5-16.2,25.5-16.2l25.4-11.1c0,0,19.6-0.8,34.5-11.1
				c-6.6,5.9-12.7,10.1-12.7,10.1s11,0.1,19.2,0.8C277.6,133,280.3,149.1,262.9,162z"/>
			<g>
				<g>
					<path class="st5" d="M228.5,132.6c1,3.1-5.1,7.8-13.5,10.5c-8.5,2.7-16.1,2.4-17.1-0.7s5.1-7.8,13.5-10.5
						C219.9,129.2,227.5,129.5,228.5,132.6z"/>
				</g>
				<g>
					<g>
						<path class="st5" d="M201.7,140.5c-3-4.6-12.4-11.5-12.5-11.6l1.1-1.5c0.4,0.3,9.7,7.2,13,12.1L201.7,140.5z"/>
					</g>
					<g>
						<path class="st5" d="M191.1,127.9c0.2,1.1-0.6,2.2-1.7,2.3c-1.1,0.2-2.2-0.6-2.3-1.7c-0.2-1.1,0.6-2.2,1.7-2.3
							S191,126.8,191.1,127.9z"/>
					</g>
				</g>
				<g>
					<g>
						<path class="st5" d="M206.6,137.9c-7.8-14.3-14.3-21.6-14.3-21.7l1.4-1.2c0.3,0.3,6.6,7.5,14.6,22.1L206.6,137.9z"/>
					</g>
					<g>
						<path class="st5" d="M194.8,114.7c0.2,1.1-0.6,2.2-1.7,2.3c-1.1,0.2-2.2-0.6-2.3-1.7s0.6-2.2,1.7-2.3
							C193.6,112.8,194.6,113.6,194.8,114.7z"/>
					</g>
				</g>
				<g>
					<g>
						<path class="st5" d="M212.4,137.8c-3.4-7.6-7.3-22.6-7.5-23.2l1.8-0.5c0,0.1,4.1,15.5,7.4,22.9L212.4,137.8z"/>
					</g>
					<g>
						<path class="st5" d="M207.6,113c0.2,1.1-0.6,2.2-1.7,2.3c-1.1,0.2-2.2-0.6-2.3-1.7s0.6-2.2,1.7-2.3
							C206.3,111.2,207.4,111.9,207.6,113z"/>
					</g>
				</g>
				<g>
					<g>
						<path class="st5" d="M217.6,134.5c-3-11.9-4.1-24.3-4.1-24.5l1.8-0.1c0,0.1,1.1,12.4,4.1,24.2L217.6,134.5z"/>
					</g>
					<g>
						<path class="st5" d="M216.3,108.9c0.2,1.1-0.6,2.2-1.7,2.3c-1.1,0.2-2.2-0.6-2.3-1.7c-0.2-1.1,0.6-2.2,1.7-2.3
							C215,107.1,216.1,107.8,216.3,108.9z"/>
					</g>
				</g>
				<g>
					<g>
						<path class="st5" d="M222.4,133.6c-1.8-7.7-1.2-24.4-1.2-25.1l1.8,0.1c0,0.2-0.6,17.1,1.2,24.6L222.4,133.6z"/>
					</g>
					<g>
						<path class="st5" d="M224.3,107.4c0.2,1.1-0.6,2.2-1.7,2.3c-1.1,0.2-2.2-0.6-2.3-1.7c-0.2-1.1,0.6-2.2,1.7-2.3
							C223.1,105.5,224.1,106.3,224.3,107.4z"/>
					</g>
				</g>
			</g>
		</g>
		<g>
			<g>
				<path class="st3" d="M412.3,236.7c-4.8,6.1-18.1,9.6-29.5,11.6h0c-9.9,1.7-18.3,2.2-18.3,2.2s10.5,6.7,18,12.2
					c7.4,5.4,0.5,22.5-24,24.7s-33.3-25-33.3-25c-13.2,26.6-48,18.5-55.1,4.7c-7.1-13.7,22.5-27.1,22.5-27.1
					c-35.6,6.1-47.8-14.6-48.9-33.7c-0.8-14,4.5-27.4,10.9-28.8C270,174,297.2,202,297.2,202c-27.1-35.8-7.5-70.7,11.4-60.6
					c18.5,9.9,18.6,53.9,18.6,55.2c12.6-70.9,50.2-64,55.7-38.9c5.3,24.6-24.9,58.5-26.2,59.9c1.6-1.2,38.4-28.4,51.5-24.2
					C421.6,197.6,421.2,225.2,412.3,236.7z"/>
			</g>
			<path class="st4" d="M358.5,287.3c-24.4,2.1-33.3-25-33.3-25c-13.2,26.6-48,18.5-55.1,4.7c-7.1-13.7,22.5-27.1,22.5-27.1
				c-35.6,6.1-47.8-14.6-48.9-33.7c0,0,10.8,25.2,33.7,28c22.8,2.8,34.3-0.4,34.3-0.4l31.1,4.5c0,0,19.3,10.9,39.9,9.9
				c-9.9,1.7-18.3,2.2-18.3,2.2s10.5,6.7,18,12.2C389.9,268,382.9,285.1,358.5,287.3z"/>
			<g>
				<g>
					<path class="st5" d="M342.8,238.3c-0.9,3.5-9.5,4.5-19.3,2c-9.8-2.4-17-7.3-16.1-10.8c0.9-3.5,9.5-4.5,19.3-2
						C336.5,229.9,343.7,234.8,342.8,238.3z"/>
				</g>
				<g>
					<g>
						<path class="st5" d="M312.2,230c-0.2-6.3-5.1-18.5-5.1-18.6l1.9-0.8c0.2,0.5,5.1,12.7,5.3,19.3L312.2,230z"/>
					</g>
					<g>
						<path class="st5" d="M309.6,211.6c-0.5,1.2-1.8,1.8-3,1.3c-1.2-0.5-1.8-1.8-1.3-3c0.5-1.2,1.8-1.8,3-1.3
							C309.5,209,310.1,210.4,309.6,211.6z"/>
					</g>
				</g>
				<g>
					<g>
						<path class="st5" d="M318.5,230.3c1-18.5-0.8-29.4-0.9-29.5l2-0.4c0.1,0.4,1.9,11.2,0.9,30L318.5,230.3z"/>
					</g>
					<g>
						<path class="st5" d="M321,201c-0.5,1.2-1.8,1.8-3,1.3c-1.2-0.5-1.8-1.8-1.3-3c0.5-1.2,1.8-1.8,3-1.3
							C321,198.5,321.5,199.8,321,201z"/>
					</g>
				</g>
				<g>
					<g>
						<path class="st5" d="M324.1,233.8c1.3-9.3,6.4-26.1,6.6-26.8l2,0.6c0,0.2-5.3,17.4-6.5,26.5L324.1,233.8z"/>
					</g>
					<g>
						<path class="st5" d="M334.3,207c-0.5,1.2-1.8,1.8-3,1.3c-1.2-0.5-1.8-1.8-1.3-3c0.5-1.2,1.8-1.8,3-1.3
							C334.2,204.5,334.8,205.9,334.3,207z"/>
					</g>
				</g>
				<g>
					<g>
						<path class="st5" d="M331.2,233.7c4.2-13.3,10.5-25.9,10.6-26l1.9,0.9c-0.1,0.1-6.3,12.6-10.5,25.7L331.2,233.7z"/>
					</g>
					<g>
						<path class="st5" d="M345.1,208.2c-0.5,1.2-1.8,1.8-3,1.3c-1.2-0.5-1.8-1.8-1.3-3c0.5-1.2,1.8-1.8,3-1.3
							C345.1,205.7,345.6,207,345.1,208.2z"/>
					</g>
				</g>
				<g>
					<g>
						<path class="st5" d="M336.4,235.8c2.9-8.5,13.3-24.2,13.8-24.9l1.7,1.2c-0.1,0.2-10.8,16.1-13.5,24.4L336.4,235.8z"/>
					</g>
					<g>
						<path class="st5" d="M353.8,211.6c-0.5,1.2-1.8,1.8-3,1.3c-1.2-0.5-1.8-1.8-1.3-3c0.5-1.2,1.8-1.8,3-1.3
							C353.7,209,354.3,210.4,353.8,211.6z"/>
					</g>
				</g>
			</g>
		</g>
		<g>
			<g>
				<path class="st3" d="M279.7,320c-0.9,7.7-10.6,17.6-19.4,25.1h0c-7.6,6.6-14.6,11.3-14.6,11.3s12.5,0.3,21.7,1.2
					c9.2,0.8,12,19.1-7.8,33.5s-41.4-4.3-41.4-4.3c2.3,29.6-31.6,40.6-44.8,32.4c-13.2-8.1,5.3-34.8,5.3-34.8
					c-27.4,23.5-48.5,12.1-59.2-3.7c-7.9-11.6-10.3-25.7-5.5-30.3c11.3-10.8,49.1-0.9,49.1-0.9c-41.7-16.7-42.8-56.7-21.5-57.8
					c21-1,43.7,36.6,44.4,37.8c-25.7-67.3,10.1-80.7,27.7-62c17.3,18.3,8.8,62.9,8.4,64.8c0.8-1.9,18.3-44.1,31.7-47.3
					C267.5,281.7,281.4,305.6,279.7,320z"/>
			</g>
			<path class="st4" d="M259.6,391.1c-19.8,14.4-41.4-4.3-41.4-4.3c2.3,29.6-31.6,40.6-44.8,32.4c-13.2-8.1,5.3-34.8,5.3-34.8
				c-27.4,23.5-48.5,12.1-59.2-3.7c0,0,22.3,16,43.3,6.7c21-9.4,29.2-18,29.2-18l29-12.2c0,0,22.2-0.6,39.3-12
				c-7.6,6.6-14.6,11.3-14.6,11.3s12.5,0.3,21.7,1.2C276.6,358.4,279.5,376.6,259.6,391.1z"/>
			<g>
				<g>
					<path class="st5" d="M221,357.1c1.1,3.5-5.9,8.7-15.5,11.7c-9.6,2.9-18.3,2.5-19.4-1c-1.1-3.5,5.9-8.7,15.5-11.7
						C211.3,353.2,219.9,353.7,221,357.1z"/>
				</g>
				<g>
					<g>
						<path class="st5" d="M190.5,365.8c-3.4-5.3-13.9-13.2-14-13.3l1.2-1.7c0.4,0.3,10.9,8.3,14.5,13.9L190.5,365.8z"/>
					</g>
					<g>
						<path class="st5" d="M178.7,351.4c0.2,1.3-0.7,2.4-1.9,2.6c-1.3,0.2-2.4-0.7-2.6-1.9c-0.2-1.3,0.7-2.4,1.9-2.6
							C177.4,349.2,178.5,350.1,178.7,351.4z"/>
					</g>
				</g>
				<g>
					<g>
						<path class="st5" d="M196.1,362.8c-8.7-16.4-15.9-24.7-15.9-24.8l1.6-1.4c0.3,0.3,7.4,8.6,16.2,25.2L196.1,362.8z"/>
					</g>
					<g>
						<path class="st5" d="M183.1,336.4c0.2,1.3-0.7,2.4-1.9,2.6c-1.3,0.2-2.4-0.7-2.6-1.9c-0.2-1.3,0.7-2.4,1.9-2.6
							C181.7,334.3,182.9,335.1,183.1,336.4z"/>
					</g>
				</g>
				<g>
					<g>
						<path class="st5" d="M202.6,362.9c-3.7-8.7-8-25.7-8.2-26.4l2-0.5c0,0.2,4.4,17.6,8.1,26.1L202.6,362.9z"/>
					</g>
					<g>
						<path class="st5" d="M197.6,334.7c0.2,1.3-0.7,2.4-1.9,2.6c-1.3,0.2-2.4-0.7-2.6-1.9c-0.2-1.3,0.7-2.4,1.9-2.6
							C196.2,332.6,197.4,333.5,197.6,334.7z"/>
					</g>
				</g>
				<g>
					<g>
						<path class="st5" d="M208.6,359.2c-3.2-13.6-4.3-27.6-4.3-27.8l2.1-0.1c0,0.1,1.1,14.1,4.3,27.5L208.6,359.2z"/>
					</g>
					<g>
						<path class="st5" d="M207.5,330.2c0.2,1.3-0.7,2.4-1.9,2.6c-1.3,0.2-2.4-0.7-2.6-1.9s0.7-2.4,1.9-2.6
							C206.1,328.1,207.3,328.9,207.5,330.2z"/>
					</g>
				</g>
				<g>
					<g>
						<path class="st5" d="M214.1,358.3c-1.9-8.8-1-27.6-1-28.4l2.1,0.1c0,0.2-0.9,19.3,1,27.9L214.1,358.3z"/>
					</g>
					<g>
						<path class="st5" d="M216.6,328.6c0.2,1.3-0.7,2.4-1.9,2.6c-1.3,0.2-2.4-0.7-2.6-1.9c-0.2-1.3,0.7-2.4,1.9-2.6
							C215.2,326.5,216.4,327.3,216.6,328.6z"/>
					</g>
				</g>
			</g>
		</g>
	</g>
</g>
</svg>
